<?xml version="1.0" encoding="UTF-8" standalone="no"?>
<!DOCTYPE svg PUBLIC "-//W3C//DTD SVG 1.1//EN" "http://www.w3.org/Graphics/SVG/1.1/DTD/svg11.dtd">
<svg width="100%" height="100%" viewBox="0 0 2048 1029" version="1.1" xmlns="http://www.w3.org/2000/svg" xmlns:xlink="http://www.w3.org/1999/xlink" xml:space="preserve" xmlns:serif="http://www.serif.com/" style="fill-rule:evenodd;clip-rule:evenodd;stroke-linejoin:round;stroke-miterlimit:2;">
    <g>
        <path d="M675.35,764.392c-200.46,28.459 -675.35,-90.896 -675.35,-90.896l0,-673.496l2019.73,0c0,0 -963.866,710.371 -1344.38,764.392Z" style="fill:url(#_Linear1);"/>
        <path d="M1283.18,849.173c281.609,22.469 764.823,-214.858 764.823,-214.858l0,-634.315l-2048,0c0,0 928.512,820.876 1283.18,849.173Z" style="fill:url(#_Linear2);"/>
    </g>
    <g>
        <path d="M1768.28,735.767c3.138,1.892 20.62,9.472 22.005,10.911c9.791,16.414 10.384,28.669 0.693,36.274c-10.656,-0.025 -22.637,2.466 -33.265,2.884c-10.251,0.403 -20.481,-0.898 -30.764,-0.601c-9.55,0.276 -19.106,1.01 -28.658,0.987c-7.704,-0.019 -15.586,2.005 -23.209,1.351c-1.161,-0.1 -5.933,-0.225 -6.186,-0.978c0.07,-29.245 41.228,-44.195 43.228,-45.538c25.041,6.398 36.525,7.853 56.156,-5.29Z" style="fill:#8ab35c;"/>
        <g>
            <path d="M1507.58,1027.54l-4.567,-2.071l46.269,-102.413l12.711,5.453l-54.413,99.031Z" style="fill:url(#_Linear3);"/>
            <path d="M2023.62,1028.76l4.577,-2.049l-45.781,-102.631l-12.736,5.392l53.94,99.288Z" style="fill:url(#_Linear4);"/>
            <path d="M1768.18,776.614c-75.232,-9.414 -171.469,-9.759 -223.151,7.821c-50.179,17.068 -56.91,51.596 -56.963,74.031c-0.056,23.274 23.788,60.91 76.209,78.437c50.161,16.771 128.086,14.404 203.512,4.983l0,-0.123c75.38,9.781 153.292,12.518 203.533,-4.014c52.504,-17.277 76.527,-54.799 76.582,-78.073c0.054,-22.435 -6.513,-56.995 -56.61,-74.301c-51.598,-17.826 -147.835,-17.94 -223.111,-8.884" style="fill:url(#_Linear5);"/>
        </g>
        <path d="M1768.28,735.767c-1.227,-0.741 -11.693,-5.706 -11.355,-5.099c9.23,-15.429 3.055,-20.568 -12.913,-19.166c-7.586,-2.634 -12.354,1.966 -13.092,16.916l-18.796,13.052c0,0 23.534,6.008 32.894,5.058c8.5,-0.864 23.262,-10.761 23.262,-10.761Z" style="fill:#ddbba2;"/>
        <path d="M1754.04,650.132c-3.246,-0.007 -7.874,2.4 -12.591,6.05c-12.5,9.675 -14.157,27.95 -19.895,41.629c-1.245,2.968 -8.359,10.094 -8.366,12.83c0,0.207 2.944,-2.867 3.133,-3.118c2.025,-2.687 4.268,-4.97 6.27,-7.626c0.147,-0.195 0.69,-2.091 1.046,-1.734c0.479,0.481 -1.932,18.69 -2.479,20.138c-0.738,1.954 -1.324,3.978 -2.098,5.899c-0.233,0.578 -1.322,1.733 -0.699,1.735c4.641,0.011 9.166,-9.815 11.838,-12.475c0.342,-0.34 1.649,3.073 1.729,3.477c0.478,2.419 0.95,6.216 0.326,8.684c-0.079,0.313 -0.859,2.776 -0.701,2.776c2.417,0.006 5.934,-8.677 7.317,-10.054c1.775,-1.766 3.112,5.717 3.111,6.259c-0.002,0.883 -0.667,5.596 -0.015,6.251c2.732,2.745 10.959,-14.308 13.229,-13.166c5.959,2.998 -6.365,18.964 2.75,12.162c14.938,-11.148 20.318,-41.011 15.42,-58.31c-2.618,-9.244 -13.422,-21.393 -19.325,-21.407Z" style="fill:#001e2f;"/>
        <path d="M1823.79,798.269c-0.57,0.163 10.355,5.731 13.158,6.438c4.134,1.044 6.377,1.948 10.432,2.804c3.994,0.843 9.717,2.454 13.867,2.464c4.224,0.01 7.131,-0.506 10.077,-2.407c7.372,-4.758 8.427,-6.972 9.578,-10.689c1.688,-5.455 1.241,-11.256 1.259,-18.806l-58.371,20.196Z" style="fill:#8ab35c;"/>
        <path d="M1791.17,694.959c-6.717,4.529 -10.873,12.352 -10.611,16.885c1.21,20.892 13.523,36.811 15.493,56.994c0.733,7.512 -10.539,21.416 -7.354,25.683c8.381,11.231 15.46,-5.868 18.073,-5.861c0.116,0 0.244,-0.051 0.347,0.001c2.783,1.399 2.943,7.412 7.272,9.047c7.924,2.993 15.23,-1.499 21.892,-4.81c0.162,-0.081 5.906,6.53 7.624,6.964c8.863,2.238 11.526,-7.314 15.308,-11.077c0.593,-0.591 9.143,0.305 11.127,0.026c3.233,-0.454 5.595,-3.511 7.641,-5.886c25.875,-30.043 -5.631,-51.482 -28.318,-67.444c-10.152,-7.142 -17.688,-15.737 -30.17,-19.173c-12.815,-3.528 -22.578,-5.222 -28.324,-1.349Z" style="fill:#001e2f;"/>
    </g>
    <defs>
        <linearGradient id="_Linear1" x1="0" y1="0" x2="1" y2="0.00868313" gradientUnits="userSpaceOnUse" gradientTransform="matrix(1113.96,-807.045,799.66,1124.25,36.5439,860.179)"><stop offset="0" style="stop-color:#f0b552;stop-opacity:1"/><stop offset="1" style="stop-color:#ff8118;stop-opacity:1"/></linearGradient>
        <linearGradient id="_Linear2" x1="0" y1="0" x2="1" y2="0.0391137" gradientUnits="userSpaceOnUse" gradientTransform="matrix(-813.045,-609.002,634.531,-781.993,1723.2,848.951)"><stop offset="0" style="stop-color:#608eeb;stop-opacity:0.92"/><stop offset="1" style="stop-color:#529498;stop-opacity:0.92"/></linearGradient>
        <linearGradient id="_Linear3" x1="0" y1="0" x2="1" y2="-0.0623092" gradientUnits="userSpaceOnUse" gradientTransform="matrix(138.885,-242.332,216.478,108.965,1499.27,1034.43)"><stop offset="0" style="stop-color:#2a373e;stop-opacity:1"/><stop offset="1" style="stop-color:#767676;stop-opacity:1"/></linearGradient>
        <linearGradient id="_Linear4" x1="0" y1="0" x2="1" y2="-0.0623092" gradientUnits="userSpaceOnUse" gradientTransform="matrix(-137.73,-242.991,-216.995,107.933,2031.9,1035.69)"><stop offset="0" style="stop-color:#2a373e;stop-opacity:1"/><stop offset="1" style="stop-color:#767676;stop-opacity:1"/></linearGradient>
        <linearGradient id="_Linear5" x1="0" y1="0" x2="1" y2="-0.049962" gradientUnits="userSpaceOnUse" gradientTransform="matrix(395.214,-98.96,108.443,361.26,1464.71,936.816)"><stop offset="0" style="stop-color:#2485b8;stop-opacity:1"/><stop offset="1" style="stop-color:#055078;stop-opacity:1"/></linearGradient>
    </defs>
</svg>
